<?xml version="1.0" encoding="UTF-8"?>
<svg width="752pt" height="752pt" version="1.1" viewBox="0 0 752 752" xmlns="http://www.w3.org/2000/svg">
 <path d="m376 428.64c-2.1211 0-4.2422-0.80859-5.8594-2.4297l-71.738-71.734c-3.2383-3.2344-3.2383-8.4883 0-11.723 3.2344-3.2383 8.4805-3.2383 11.723 0l65.875 65.883 65.879-65.879c3.2383-3.2383 8.4805-3.2383 11.723 0 3.2383 3.2344 3.2383 8.4883 0 11.723l-71.742 71.734c-1.6133 1.6133-3.7344 2.4258-5.8594 2.4258zm162.2-52.641c-0.003906-89.434-72.766-162.2-162.2-162.2-89.441 0-162.21 72.762-162.21 162.2 0 89.441 72.766 162.21 162.21 162.21 89.43 0 162.19-72.766 162.2-162.21zm-16.574 0c-0.007812 80.301-65.332 145.63-145.62 145.63-80.301 0-145.63-65.332-145.63-145.63 0-80.297 65.332-145.62 145.63-145.62 80.289 0 145.61 65.324 145.62 145.62z" fill="#fff"/>
</svg>
